PathFileType	4	(X/Y/Z)	Patient4_TMGait_0pt5_01_left_12.trc.trc
DataRate	CameraRate	NumFrames	NumMarkers	Units	OrigDataRate	OrigDataStartFrame	OrigNumFrames
76.502732240437	76.502732240437	7	33	mm	76.502732240437	18	       141
Frame#	Time	L.ASIS			Sacral			L.Shoulder			Chest			R.Shoulder			Neck			R.ASIS			R.Thigh.Superior			R.Thigh.Lateral			R.Thigh.Inferior			R.Patella			L.Thigh.Superior			L.Thigh.Lateral			L.Thigh.Inferior			L.Patella			L.Shank.Superior			L.Shank.Lateral			L.Shank.Inferior			R.Shank.Superior			R.Shank.Lateral			R.Shank.Inferior			R.Heel			R.Midfoot.Superior			R.Midfoot.Lateral			R.Toe			L.Heel			L.Midfoot.Lateral			L.Midfoot.Superior			L.Toe			L.Elbow			L.Wrist			R.Elbow			R.Wrist			
		X1	Y1	Z1	X2	Y2	Z2	X3	Y3	Z3	X4	Y4	Z4	X5	Y5	Z5	X6	Y6	Z6	X7	Y7	Z7	X8	Y8	Z8	X9	Y9	Z9	X10	Y10	Z10	X11	Y11	Z11	X12	Y12	Z12	X13	Y13	Z13	X14	Y14	Z14	X15	Y15	Z15	X16	Y16	Z16	X17	Y17	Z17	X18	Y18	Z18	X19	Y19	Z19	X20	Y20	Z20	X21	Y21	Z21	X22	Y22	Z22	X23	Y23	Z23	X24	Y24	Z24	X25	Y25	Z25	X26	Y26	Z26	X27	Y27	Z27	X28	Y28	Z28	X29	Y29	Z29	X30	Y30	Z30	X31	Y31	Z31	X32	Y32	Z32	X33	Y33	Z33	

18	16.252214285714	766.819744601378	960.644345521329	332.637870223883	569.512814214359	1015.580228037748	508.610508985274	744.883617318283	1432.636435584880	309.523482539099	859.992369604448	1357.306007954324	458.984633785558	801.310033493457	1436.567661589918	641.047061042028	765.903143229002	1495.192431440270	459.576193936141	802.207804054393	941.233790882819	605.411512962918	818.048465946033	732.744166347021	576.274655314230	728.909271818421	635.742164800013	644.187936779770	788.998888454467	573.769135669498	559.324094942143	778.125174213489	488.059868825478	566.542402980697	847.958066196896	781.197047360448	371.800990003490	808.038260145748	654.024347541691	295.702455143390	904.433210700470	596.116476120611	368.959426105741	933.665351298603	526.974749707052	365.519536345218	910.348371535341	451.916401799737	354.552428991223	835.965695441922	329.148132373634	296.614348282007	906.155241683350	221.765076601365	359.571543913655	747.568474123181	401.406178548374	576.198613724414	672.909281108018	301.773667473077	639.319287377819	709.274394264888	204.815733872926	576.955464704456	567.983869312689	42.890458605974	548.076354631523	738.667879462784	97.010164819443	586.800734201160	649.375128368578	36.444935718822	625.162842485751	857.869513346371	43.016067007959	618.849338953829	803.520531461266	44.207427732005	389.100347752470	883.241085506721	49.528100674681	314.564228892419	954.324302491503	125.360625825572	341.473559405734	1089.054198143064	94.306089052311	324.306974386557	637.471815466379	1084.823042792366	222.806147370792	626.730625767955	826.240359360255	239.672312111661	892.530055165885	1108.926764024140	760.092557014606	1144.316875039427	1098.041354479514	720.608836129343	
19	16.265285714286	767.322920089640	959.681597434815	330.956607329796	570.411860469089	1015.010472199802	507.576774306365	745.051401131736	1432.016622962359	307.782377224653	860.547980592269	1356.746678424014	456.916619834327	802.340861390776	1436.179425133432	639.018181993887	766.546335569068	1494.572929320130	457.723924138391	803.282341949292	940.585645684364	603.815939077539	817.718114291052	731.690935831972	574.994775995933	727.973377051533	635.133038927166	643.213433129999	787.355363561894	572.693663011428	558.357999002642	775.709631318437	487.000510997795	565.674755183808	846.854027229824	778.797108831360	370.301149986107	805.632574770377	651.988276618891	294.375841831107	901.377597486511	593.676573672977	367.926365630959	930.469192718179	525.925253300734	364.954747940944	909.576723238234	451.246959854538	353.967159505156	839.578728610157	325.460794463443	296.695997595032	913.693901409352	221.026874826999	360.256240442052	744.377947919458	400.469378879585	575.425260607482	668.914718148994	301.627823921041	638.776555801514	704.117297214089	204.256950665449	576.511418274483	561.526546998277	42.977895512956	548.083934587445	732.178506608586	96.938849114681	586.641565390908	642.882997125136	36.496783246783	625.145618261964	851.342753358060	42.878024079341	618.901420965282	817.457450073783	40.329449487431	390.755676943549	897.082502003314	47.417501073514	316.245739804568	965.705647716223	125.725341069524	342.748446849226	1101.549754307019	98.771385349683	325.968165299450	633.268504986821	1085.652330436853	222.163972400194	621.291161600179	827.109357745222	240.293089204347	897.221096399651	1109.901886373482	757.199928922600	1148.312277243854	1108.041160823798	716.000845280251	
20	16.278357142857	768.161634126117	958.514479879089	329.209496943651	571.532181258192	1014.221089648007	506.282913121141	745.191523046611	1431.231619338751	305.803452471325	861.051298061851	1356.178227338947	454.707688241651	803.095669210303	1435.726256671310	636.807098138242	767.010490680651	1493.844328900759	455.632567457281	804.581533927823	939.867345104973	602.149573888147	817.615510139268	730.536829075991	573.673101164580	727.191507532733	634.427996370614	642.163005759478	785.866734663262	571.509596337955	557.330602845571	773.398915829587	485.829718585638	564.699067467534	846.315668863451	776.302014627072	368.682863816572	803.551479598512	649.773419939714	293.190453014021	898.986226054101	591.170697025679	366.656667352564	927.524374117349	524.345931235077	364.258007705319	908.559962972266	450.064307538936	353.224928695002	841.735655308676	322.128845466779	296.974272085520	918.964889361890	220.144700961367	360.824408507655	741.260881113877	399.426495346414	574.574864780321	664.983383211317	301.422987821872	638.200286354249	698.957796355347	203.635174014013	576.035663649425	555.021465021920	42.994643812862	548.081548876273	725.631310363137	96.870657058912	586.482142692545	636.348764715273	36.505654176833	625.128303517331	844.767136460476	42.776809548746	618.957905185851	827.626031318633	37.822199679377	392.717700280618	906.770841512709	45.856563195592	317.859605641357	973.882452732016	125.532056375351	343.729417095329	1110.172055790078	101.043585979133	326.650037742093	629.657575829109	1086.161471044396	221.338944121295	616.668747881858	827.593498373976	240.460329860341	901.418591610663	1110.709904396221	754.174085609572	1151.612370677412	1116.930430715582	711.424467958894	
21	16.291428571429	769.341253469202	957.149189077453	327.405376178915	572.873669707765	1013.213037715772	504.736356048669	745.303562428076	1430.267352947184	303.579186680808	861.512215611062	1355.590041478044	452.348237272722	803.596649672090	1435.206353052073	634.408636371523	767.301712621352	1493.004364805411	453.290366658503	806.089571097169	939.073293269916	600.417865996715	817.712703856646	729.273094907305	572.313184237941	726.532966587416	633.624665628110	641.035765872053	784.511529209535	570.212931974114	556.240618933332	771.176800357966	484.529608993321	563.609308508799	846.422739296546	773.805406406387	366.926173959336	801.849569705422	647.436206433211	292.162811103486	897.349085712300	588.668205940021	365.129399783351	924.932538602400	522.300029137782	363.409642585467	907.414673327413	448.395878112524	352.332792838450	842.561168399202	319.078488885926	297.362339562020	922.108575227076	218.964215302633	361.241514093923	738.194640296091	398.274474400453	573.647037106665	661.088349327526	301.155515726771	637.589529966646	693.781324982290	202.947334894122	575.531586035820	548.467699689215	42.919665827139	548.075395647758	719.026557170527	96.802114446383	586.324828904641	629.774931334824	36.458488902677	625.112517779713	838.148696574081	42.718974351855	619.022931157093	834.063534922261	36.379743367953	394.836028582152	912.445220262753	44.583020931485	319.307928147857	979.032761317321	124.574881588934	344.410729859295	1115.221799058513	100.901898242654	326.435841522696	626.727731994604	1086.274411909344	220.304480876681	612.909151661914	827.639187567264	240.154379669533	905.055115308850	1111.306580676058	751.049458059811	1154.258095823807	1124.653640779519	706.909659033348	
22	16.304500000000	770.854341162436	955.606259345510	325.551415861846	574.426441491795	1012.000615985751	502.951050707334	745.394007525965	1429.120976222221	301.107579904685	861.943633607349	1354.975420169645	449.832947264237	803.874804037203	1434.627171662849	631.820364334864	767.437599344874	1492.060489831865	450.690379138599	807.777451075214	938.206985160434	598.626834220466	817.988155521520	727.904096165813	570.922798006160	725.980352514711	632.724705387771	639.826839628606	783.294307222273	568.809253846433	555.085240089093	769.064152932275	483.082475197550	562.402968675376	847.205011113891	771.392189390423	365.015967946120	800.564987761049	645.045764281950	291.273585826109	896.495703822473	586.228547823649	363.331310017321	922.768223060531	519.882487919736	362.388834720647	906.254005202738	446.305925668498	351.301350472902	842.267354485126	316.252716693798	297.752230414962	923.365704212996	217.402846734932	361.485994721014	735.183829617882	397.015203723046	572.641680521998	657.219568917490	300.832352982256	636.940454097606	688.588512719163	202.197985819869	575.002761369603	541.869223393795	42.750860723847	548.072543914383	712.375275900976	96.730317838896	586.171270031731	623.169351291889	36.352465799519	625.099027195049	831.500189044509	42.703784072569	619.100322254875	837.011178200513	35.714514603140	396.943701298454	914.465954339716	43.399820384016	320.513630773531	981.464016771525	122.772577975619	344.823670860753	1117.136928161583	98.373835927250	325.518290152694	624.558897692351	1085.933557988478	219.028758772977	610.075302103411	827.213479034497	239.356361194829	908.061213486657	1111.649626479313	747.858077873872	1156.269673028646	1131.150903780580	702.484160597574	
23	16.317571428571	772.677070530562	953.924117784276	323.653834193659	576.168042740848	1010.615930158008	500.947430953806	745.476525658460	1427.804531916841	298.392980348998	862.360690312421	1354.335506290868	447.162168711270	803.969050791821	1434.009932118908	629.043211277529	767.446893690117	1491.032985180787	447.831618907808	809.602584453920	937.284416566661	596.783761189397	818.429359010561	726.451374067187	569.511300503166	725.535914056486	631.735951682326	638.527614423211	782.251257773642	567.316502867190	553.859937096898	767.125434767522	481.473807654088	561.083704039209	848.636576622110	769.138646918452	362.946089005043	799.720174517471	642.685262015404	290.471354491564	896.396083329005	583.906204419301	361.261494595888	921.079037486585	517.219226675059	361.176761400314	905.181346048002	443.895236430503	350.141652596457	841.125011422111	313.622767779209	298.032307058171	923.051672356891	215.457705801655	361.548916349199	732.266167259536	395.657774150356	571.559952434230	653.389494868197	300.474878468862	636.246978477301	683.398827265070	201.403227343946	574.453138360863	535.234672608638	42.515421264057	548.079445546101	705.700847979306	96.654899541093	586.022911434060	616.544267189230	36.201165243485	625.087063306769	824.839190652525	42.720728157893	619.192525018194	836.886399223036	35.575328013355	398.884146700120	913.369002333231	42.189206481960	321.428304876625	981.576211961020	120.176839307446	345.023810505395	1116.446859375225	93.738567793225	324.151202749501	623.218733838678	1085.106979699152	217.480389182704	608.236288154409	826.306149932872	238.050716860043	910.369699540822	1111.707537623743	744.628829387063	1157.652255393824	1136.359671005741	698.172215970025	
24	16.330642857143	774.767726773739	952.160353715057	321.718481669093	578.061753987191	1009.111368130006	498.751165600455	745.571321353476	1426.347313568598	295.446659294706	862.779546625512	1353.682112877874	444.342917019682	803.924511665335	1433.391941005883	626.082094961315	767.367664339160	1489.956455790912	444.720221904692	811.509746774324	936.336111278485	594.897629900006	819.034134287575	724.956118298194	568.086709837922	725.226129173056	630.674152838706	637.126992383250	781.452750147344	565.766640906261	552.559380228339	765.470292154041	479.696008226419	559.664276496318	850.637944977623	767.112461082311	360.721020714275	799.319960379482	640.448518877986	289.682706460270	896.965727763665	581.753861568897	358.935338476496	919.884136363525	514.459387869041	359.760935612931	904.280636732967	441.293697594803	348.864418286124	839.425161575240	311.191576599109	298.104671614668	921.519271280456	213.199043870153	361.433128687522	729.515318608458	394.220463903435	570.405581473323	649.637443297561	300.121628407191	635.501854488945	678.253322582608	200.594016382177	573.887248798632	528.578207975546	42.278486423456	548.100343463394	699.040484540519	96.580220538522	585.881308298561	609.915911082306	36.040161295681	625.073598613009	818.186191004171	42.748007634520	619.299434803765	834.232029427384	35.756299069569	400.533125376998	909.799710087330	40.910908298728	322.035247285962	979.815250851599	116.957629524997	345.076924973113	1113.718598983559	87.490503423888	322.599295028971	622.759762519578	1083.793889903642	215.633263065469	607.458324013606	824.931815273997	236.228029104175	911.918583602649	1111.467493686635	741.386909120518	1158.400156712353	1140.217696398104	693.993273910193	
